<svg  viewBox="0 0 32 32" fill="none" xmlns="http://www.w3.org/2000/svg">
<path opacity="0.4" d="M5.3335 25L7.00016 26.6666L20.2335 13.9125C19.9085 13.5416 19.5627 13.1708 19.196 12.8041C19.1043 12.7125 19.0127 12.6208 18.921 12.5333C18.8293 12.4458 18.7377 12.3583 18.646 12.2708C18.4627 12.0958 18.2752 11.9291 18.0918 11.7666L5.3335 25ZM22.1168 7.58329C22.9877 8.23746 23.7627 9.01246 24.4168 9.88329L25.3335 8.99996L23.0002 6.66663L22.1168 7.58329Z" fill="#FBB448"/>
<path d="M24.6001 20.8959L25.1959 22.5125L25.8417 20.9167C26.3751 19.6042 26.6667 18.1667 26.6667 16.6667C26.6667 10.4084 21.5917 5.33337 15.3334 5.33337C13.8334 5.33337 12.3959 5.62504 11.0834 6.15837L9.4834 6.80421L11.1001 7.40004L11.1084 7.40421L11.1417 7.41671C11.1709 7.42921 11.2167 7.44587 11.2792 7.47087C11.4001 7.52087 11.5792 7.59587 11.8084 7.70004C12.2667 7.90837 12.9209 8.22504 13.6959 8.66254C15.2501 9.53754 17.2792 10.8959 19.1959 12.8084C21.1126 14.7209 22.4667 16.7542 23.3417 18.3084C23.7792 19.0834 24.0959 19.7375 24.3042 20.1959C24.4084 20.425 24.4834 20.6042 24.5334 20.725C24.5584 20.7834 24.5751 20.8292 24.5876 20.8625L24.6001 20.8959Z" fill="#FBB448"/>
</svg>
