<svg width="24" height="24" viewBox="0 0 24 24" fill="none" xmlns="http://www.w3.org/2000/svg">
<path opacity="0.4" d="M2 4V7H3H21H22V4H2ZM8.49687 16.5C8.49687 18.4344 10.0625 20 11.9969 20C13.9312 20 15.4969 18.4344 15.4969 16.5C15.4969 15.9156 15.0781 14.4 13.3969 13L12.6969 13.7L11.2969 12.3C10.3625 12.8844 8.49687 14.5406 8.49687 16.5ZM10.5969 17.5531C10.5969 16.5031 11.9969 15.4531 11.9969 15.4531C11.9969 15.4531 13.3969 16.5031 13.3969 17.5531C13.3969 18.325 12.7688 18.9531 11.9969 18.9531C11.225 18.9531 10.5969 18.325 10.5969 17.5531Z" fill="#FBB448"/>
<path d="M21 7H3V20H7V15C7 12.2375 9.2375 10 12 10C14.7625 10 17 12.2375 17 15V20H21V7Z" fill="#FBB448"/>
</svg>
