<svg width="24" height="24" viewBox="0 0 24 24" fill="none" xmlns="http://www.w3.org/2000/svg">
<path opacity="0.4" d="M3 6V6.75C3 10.9531 5.2 13.2406 7.39062 14.4406C8.46875 15.0312 9.54063 15.3562 10.3375 15.5344C10.5188 15.575 10.6906 15.6094 10.8438 15.6375C10.2344 15.3062 9.47188 14.6719 8.79063 13.4594C8.56563 13.3594 8.34063 13.25 8.1125 13.125C6.43125 12.2063 4.7625 10.5594 4.52813 7.5H7.16563C7.11875 7.02813 7.07812 6.52812 7.05312 6H3.75H3ZM13.1594 15.6344C13.3125 15.6062 13.4812 15.575 13.6656 15.5312C14.4625 15.3531 15.5344 15.0281 16.6125 14.4375C18.8 13.2406 21 10.9531 21 6.75V6H20.25H16.95C16.9219 6.52812 16.8844 7.02813 16.8375 7.5H19.475C19.2406 10.5594 17.5719 12.2062 15.8938 13.1219C15.6687 13.2469 15.4406 13.3563 15.2156 13.4563C14.5312 14.6687 13.7719 15.3031 13.1625 15.6344H13.1594Z" fill="#FBB448"/>
<path d="M11 15.7156C9.54063 15.0094 7 12.5531 7 4H17C17 12.5531 14.4594 15.0094 13 15.7156V18H15.25H16V18.75V19.25V20H15.25H8.75H8V19.25V18.75V18H8.75H11V15.7156Z" fill="#FBB448"/>
</svg>
