<svg width="24" height="24" viewBox="0 0 24 24" fill="none" xmlns="http://www.w3.org/2000/svg">
<path opacity="0.4" d="M4 18.75L5.25 20L15.175 10.4344C14.9313 10.1562 14.6719 9.87813 14.3969 9.60313C14.3281 9.53438 14.2594 9.46563 14.1906 9.4C14.1219 9.33437 14.0531 9.26875 13.9844 9.20312C13.8469 9.07188 13.7063 8.94687 13.5688 8.825L4 18.75ZM16.5875 5.6875C17.2406 6.17813 17.8219 6.75937 18.3125 7.4125L19 6.75L17.25 5L16.5875 5.6875Z" fill="#FBB448"/>
<path d="M18.45 15.6719L18.8969 16.8844L19.3813 15.6875C19.7813 14.7031 20 13.625 20 12.5C20 7.80625 16.1938 4 11.5 4C10.375 4 9.29692 4.21875 8.31255 4.61875L7.11255 5.10312L8.32505 5.55L8.3313 5.55313L8.3563 5.5625C8.37817 5.57187 8.41255 5.58438 8.45942 5.60312C8.55005 5.64062 8.68442 5.69687 8.8563 5.775C9.20005 5.93125 9.69067 6.16875 10.2719 6.49688C11.4375 7.15313 12.9594 8.17188 14.3969 9.60625C15.8344 11.0406 16.85 12.5656 17.5063 13.7312C17.8344 14.3125 18.0719 14.8031 18.2282 15.1469C18.3063 15.3188 18.3625 15.4531 18.4 15.5437C18.4188 15.5875 18.4313 15.6219 18.4407 15.6469L18.45 15.6719Z" fill="#FBB448"/>
</svg>
