<svg width="24" height="24" viewBox="0 0 24 24" fill="none" xmlns="http://www.w3.org/2000/svg">
<path opacity="0.4" d="M5 10.8469C5.07812 10.8781 5.1625 10.9031 5.24688 10.925C5.33125 10.9469 5.41875 10.9625 5.50938 10.975C5.63438 10.9906 5.7625 11 5.8875 11C6.2875 11 6.6625 10.9156 7 10.7656V16H17V10.7656C17.1687 10.8406 17.3469 10.9 17.5312 10.9375C17.625 10.9562 17.7188 10.9719 17.8125 10.9812C17.9062 10.9906 18.0062 10.9969 18.1062 10.9969C18.2344 10.9969 18.3594 10.9875 18.4844 10.9719C18.6656 10.9469 18.8375 10.9031 19 10.8438V16V20H5V16V10.8469Z" fill="#FBB448"/>
<path d="M17.9999 4L20.1124 7.24375C21.0405 8.70938 20.2186 10.7438 18.4843 10.975C18.3593 10.9906 18.2374 11 18.1061 11C17.2905 11 16.5686 10.6438 16.0686 10.0938C15.5718 10.6438 14.8499 11 14.0311 11C13.2155 11 12.4905 10.6438 11.9936 10.0938C11.4968 10.6438 10.7749 11 9.95613 11C9.14051 11 8.41551 10.6438 7.91863 10.0938C7.42176 10.6438 6.69676 11 5.88113 11C5.75301 11 5.62488 10.9906 5.50301 10.975C3.77488 10.7438 2.95613 8.70625 3.88113 7.24375L5.99988 4H17.9999Z" fill="#FBB448"/>
</svg>
