<svg width="24" height="24" viewBox="0 0 24 24" fill="none" xmlns="http://www.w3.org/2000/svg">
<path fill-rule="evenodd" clip-rule="evenodd" d="M4 21V18.75H5.125V9.75C5.125 6.02344 8.14844 3 11.875 3C15.6016 3 18.625 6.02344 18.625 9.75V18.75H19.75V21H4ZM20.625 16.75V9.75C20.625 4.91887 16.7061 1 11.875 1C7.04387 1 3.125 4.91887 3.125 9.75V16.75H2V23H21.75V16.75H20.625Z" fill="#383838"/>
<path opacity="0.4" d="M5.125 9.75V18.75H18.625V9.75C18.625 6.02344 15.6016 3 11.875 3C8.14844 3 5.125 6.02344 5.125 9.75ZM8.5 9.75H9.34375H11.0312V8.34375V7.5H12.7188V8.34375V9.75H14.4062H15.25V11.4375H14.4062H12.7188V15.6562V16.5H11.0312V15.6562V11.4375H9.34375H8.5V9.75Z" fill="#8F8F8F"/>
<path d="M12.7188 8.34375V7.5H11.0312V8.34375V9.75H9.34375H8.5V11.4375H9.34375H11.0312V15.6562V16.5H12.7188V15.6562V11.4375H14.4062H15.25V9.75H14.4062H12.7188V8.34375ZM5.125 18.75H4V21H5.125H18.625H19.75V18.75H18.625H5.125Z" fill="#C8C8C8"/>
</svg>
