<svg width="24" height="24" viewBox="0 0 24 24" fill="none" xmlns="http://www.w3.org/2000/svg">
<path opacity="0.4" d="M5 9.09999V20H16V17.9281L19.4062 16.4156L20 16.1531V15.5031V10.0031V9.00311H19H16.1594C15.6844 9.31874 15.1125 9.50311 14.5 9.50311C13.9125 9.50311 13.3687 9.33436 12.9062 9.04374C12.2781 9.63749 11.4344 10.0031 10.5 10.0031C9.56563 10.0031 8.72187 9.63749 8.09375 9.04374C7.63125 9.33124 7.0875 9.49999 6.5 9.49999C5.95312 9.49999 5.44063 9.35311 5 9.09999ZM8 11H9V11.5V16.5V17H8V16.5V11.5V11ZM10 11H11V11.5V16.5V17H10V16.5V11.5V11ZM12 11H13V11.5V16.5V17H12V16.5V11.5V11ZM16 11H18V14.85L16 15.7375V11Z" fill="#FBB448"/>
<path d="M10.5 9C11.5156 9 12.3906 8.39375 12.7812 7.525C13.1313 8.10938 13.7688 8.5 14.5 8.5C15.6031 8.5 16.5 7.60313 16.5 6.5C16.5 5.39688 15.6031 4.5 14.5 4.5C13.7688 4.5 13.1313 4.89062 12.7812 5.475C12.3906 4.60625 11.5156 4 10.5 4C9.48438 4 8.60938 4.60625 8.21875 5.475C7.86875 4.89062 7.23125 4.5 6.5 4.5C5.39688 4.5 4.5 5.39688 4.5 6.5C4.5 7.60313 5.39688 8.5 6.5 8.5C7.23125 8.5 7.86875 8.10938 8.21875 7.525C8.60938 8.39375 9.48438 9 10.5 9ZM9 11.5V11H8V11.5V16.5V17H9V16.5V11.5ZM11 11.5V11H10V11.5V16.5V17H11V16.5V11.5ZM13 11.5V11H12V11.5V16.5V17H13V16.5V11.5Z" fill="#FBB448"/>
</svg>
